<svg xmlns="http://www.w3.org/2000/svg" width="512" height="512" viewBox="0 0 512 512"><defs>
  <radialGradient id="bg" cx="50%" cy="45%" r="70%">
    <stop offset="0" stop-color="#a6f5bd"/><stop offset="1" stop-color="#1e9e58"/>
  </radialGradient>
  <linearGradient id="gold" x1="0" y1="0" x2="0" y2="1">
    <stop offset="0" stop-color="#fff3a8"/><stop offset="0.55" stop-color="#ffcc2e"/><stop offset="1" stop-color="#ff9d00"/>
  </linearGradient>
  <linearGradient id="shine" x1="0" y1="0" x2="0" y2="1">
    <stop offset="0" stop-color="#ffffff" stop-opacity="0.55"/><stop offset="1" stop-color="#ffffff" stop-opacity="0"/>
  </linearGradient>
</defs>
<rect width="512" height="512" fill="url(#bg)"/>
<g opacity="0.16"><path d="M256,256 L676.0,256.0 L650.7,399.6 Z" fill="#ffffff"/><path d="M256,256 L577.7,526.0 L466.0,619.7 Z" fill="#ffffff"/><path d="M256,256 L328.9,669.6 L183.1,669.6 Z" fill="#ffffff"/><path d="M256,256 L46.0,619.7 L-65.7,526.0 Z" fill="#ffffff"/><path d="M256,256 L-138.7,399.6 L-164.0,256.0 Z" fill="#ffffff"/><path d="M256,256 L-138.7,112.4 L-65.7,-14.0 Z" fill="#ffffff"/><path d="M256,256 L46.0,-107.7 L183.1,-157.6 Z" fill="#ffffff"/><path d="M256,256 L328.9,-157.6 L466.0,-107.7 Z" fill="#ffffff"/><path d="M256,256 L577.7,-14.0 L650.7,112.4 Z" fill="#ffffff"/></g>
<circle cx="256" cy="256" r="236" fill="none" stroke="#ffffff" stroke-opacity="0.35" stroke-width="6"/>
<g fill="#ffffff" stroke="#1b2340" stroke-width="12" stroke-linejoin="round" stroke-linecap="round" paint-order="stroke">
  <ellipse cx="256" cy="290" rx="92" ry="76"/>
  <ellipse cx="148" cy="190" rx="38" ry="48" transform="rotate(-22 148 190)"/>
  <ellipse cx="220" cy="136" rx="38" ry="50" transform="rotate(-6 220 136)"/>
  <ellipse cx="292" cy="136" rx="38" ry="50" transform="rotate(6 292 136)"/>
  <ellipse cx="364" cy="190" rx="38" ry="48" transform="rotate(22 364 190)"/>
</g>
<ellipse cx="236" cy="262" rx="44" ry="20" fill="#ffffff" opacity="0.0"/>
<g fill="#ffd9ec"><ellipse cx="256" cy="298" rx="52" ry="38"/></g>
<text x="256" y="440" text-anchor="middle" font-family="'Arial Rounded MT Bold', 'Arial Black', sans-serif" font-size="120" font-weight="900" fill="url(#gold)" stroke="#1b2340" stroke-width="16" stroke-linejoin="round" paint-order="stroke" letter-spacing="2">+3</text></svg>